<mxfile host="app.diagrams.net" agent="Mozilla/5.0 (Windows NT 10.0; Win64; x64) AppleWebKit/537.36 (KHTML, like Gecko) Chrome/131.0.0.0 Safari/537.36" version="26.0.5">
  <diagram id="C5RBs43oDa-KdzZeNtuy" name="Page-1">
    <mxGraphModel dx="772" dy="685" grid="1" gridSize="10" guides="1" tooltips="1" connect="1" arrows="1" fold="1" page="1" pageScale="1" pageWidth="827" pageHeight="1169" math="0" shadow="0">
      <root>
        <mxCell id="WIyWlLk6GJQsqaUBKTNV-0" />
        <mxCell id="WIyWlLk6GJQsqaUBKTNV-1" parent="WIyWlLk6GJQsqaUBKTNV-0" />
        <mxCell id="QptUwqCMD3HkQwkREWGF-17" value="USER" style="swimlane;fontStyle=0;childLayout=stackLayout;horizontal=1;startSize=30;horizontalStack=0;resizeParent=1;resizeParentMax=0;resizeLast=0;collapsible=1;marginBottom=0;whiteSpace=wrap;html=1;fontFamily=Courier New;" vertex="1" parent="WIyWlLk6GJQsqaUBKTNV-1">
          <mxGeometry x="359.5" y="370" width="120" height="110" as="geometry" />
        </mxCell>
        <mxCell id="QptUwqCMD3HkQwkREWGF-81" value="&lt;font style=&quot;font-size: 10px;&quot;&gt;&lt;b style=&quot;&quot;&gt;&amp;nbsp; &lt;u&gt;NICK&lt;/u&gt;&lt;/b&gt;&lt;/font&gt;&lt;div&gt;&lt;font style=&quot;font-size: 10px;&quot;&gt;&amp;nbsp; NAME&lt;/font&gt;&lt;/div&gt;&lt;div&gt;&lt;font style=&quot;font-size: 10px;&quot;&gt;&amp;nbsp; LOGIN&lt;/font&gt;&lt;/div&gt;&lt;div&gt;&lt;font style=&quot;font-size: 10px;&quot;&gt;&amp;nbsp; MAIL&lt;/font&gt;&lt;/div&gt;&lt;div&gt;&lt;font style=&quot;font-size: 10px;&quot;&gt;&amp;nbsp; PASSWORD&lt;/font&gt;&lt;/div&gt;" style="text;html=1;align=left;verticalAlign=middle;resizable=0;points=[];autosize=1;strokeColor=none;fillColor=none;fontFamily=Courier New;fontSize=11;fontColor=default;labelBackgroundColor=default;" vertex="1" parent="QptUwqCMD3HkQwkREWGF-17">
          <mxGeometry y="30" width="120" height="80" as="geometry" />
        </mxCell>
        <mxCell id="QptUwqCMD3HkQwkREWGF-51" style="edgeStyle=none;shape=connector;rounded=0;orthogonalLoop=1;jettySize=auto;html=1;entryX=0;entryY=0.5;entryDx=0;entryDy=0;strokeColor=default;align=center;verticalAlign=middle;fontFamily=Courier New;fontSize=11;fontColor=default;labelBackgroundColor=default;endArrow=none;" edge="1" parent="WIyWlLk6GJQsqaUBKTNV-1" source="QptUwqCMD3HkQwkREWGF-75" target="QptUwqCMD3HkQwkREWGF-25">
          <mxGeometry relative="1" as="geometry" />
        </mxCell>
        <mxCell id="QptUwqCMD3HkQwkREWGF-57" style="edgeStyle=none;shape=connector;rounded=0;orthogonalLoop=1;jettySize=auto;html=1;exitX=0.5;exitY=0;exitDx=0;exitDy=0;entryX=0.5;entryY=1;entryDx=0;entryDy=0;strokeColor=default;align=center;verticalAlign=middle;fontFamily=Courier New;fontSize=11;fontColor=default;labelBackgroundColor=default;endArrow=none;" edge="1" parent="WIyWlLk6GJQsqaUBKTNV-1" source="QptUwqCMD3HkQwkREWGF-71" target="QptUwqCMD3HkQwkREWGF-17">
          <mxGeometry relative="1" as="geometry" />
        </mxCell>
        <mxCell id="QptUwqCMD3HkQwkREWGF-21" value="MATCH" style="swimlane;fontStyle=0;childLayout=stackLayout;horizontal=1;startSize=30;horizontalStack=0;resizeParent=1;resizeParentMax=0;resizeLast=0;collapsible=1;marginBottom=0;whiteSpace=wrap;html=1;fontFamily=Courier New;" vertex="1" parent="WIyWlLk6GJQsqaUBKTNV-1">
          <mxGeometry x="360" y="560" width="120" height="120" as="geometry">
            <mxRectangle x="360" y="560" width="60" height="30" as="alternateBounds" />
          </mxGeometry>
        </mxCell>
        <mxCell id="QptUwqCMD3HkQwkREWGF-37" value="&lt;font style=&quot;font-size: 10px;&quot;&gt;&lt;b&gt;&amp;nbsp; &lt;u&gt;CODE&lt;/u&gt;&lt;/b&gt;&lt;/font&gt;&lt;div&gt;&lt;font style=&quot;font-size: 10px;&quot;&gt;&amp;nbsp; PASSWORD&lt;/font&gt;&lt;/div&gt;&lt;div&gt;&lt;font style=&quot;font-size: 10px;&quot;&gt;&amp;nbsp; TIME OF CREATION&lt;/font&gt;&lt;/div&gt;&lt;div&gt;&lt;font style=&quot;font-size: 10px;&quot;&gt;&amp;nbsp; STATE&lt;/font&gt;&lt;/div&gt;&lt;div&gt;&lt;font style=&quot;font-size: 10px;&quot;&gt;&amp;nbsp; NAME&lt;/font&gt;&lt;/div&gt;" style="text;html=1;align=left;verticalAlign=middle;resizable=0;points=[];autosize=1;strokeColor=none;fillColor=none;fontFamily=Courier New;" vertex="1" parent="QptUwqCMD3HkQwkREWGF-21">
          <mxGeometry y="30" width="120" height="90" as="geometry" />
        </mxCell>
        <mxCell id="QptUwqCMD3HkQwkREWGF-58" style="edgeStyle=none;shape=connector;rounded=0;orthogonalLoop=1;jettySize=auto;html=1;exitX=0.5;exitY=1;exitDx=0;exitDy=0;strokeColor=default;align=center;verticalAlign=middle;fontFamily=Courier New;fontSize=11;fontColor=default;labelBackgroundColor=default;endArrow=none;entryX=1;entryY=0.5;entryDx=0;entryDy=0;" edge="1" parent="WIyWlLk6GJQsqaUBKTNV-1" source="QptUwqCMD3HkQwkREWGF-25" target="QptUwqCMD3HkQwkREWGF-60">
          <mxGeometry relative="1" as="geometry">
            <mxPoint x="619.6470588235295" y="960" as="targetPoint" />
            <Array as="points">
              <mxPoint x="620" y="960" />
            </Array>
          </mxGeometry>
        </mxCell>
        <mxCell id="QptUwqCMD3HkQwkREWGF-25" value="CLASH" style="swimlane;fontStyle=0;childLayout=stackLayout;horizontal=1;startSize=30;horizontalStack=0;resizeParent=1;resizeParentMax=0;resizeLast=0;collapsible=1;marginBottom=0;whiteSpace=wrap;html=1;fontFamily=Courier New;" vertex="1" parent="WIyWlLk6GJQsqaUBKTNV-1">
          <mxGeometry x="560" y="585" width="120" height="70" as="geometry" />
        </mxCell>
        <mxCell id="QptUwqCMD3HkQwkREWGF-88" value="&lt;b style=&quot;&quot;&gt;&lt;font style=&quot;font-size: 10px;&quot;&gt;&amp;nbsp; &lt;u&gt;USER&lt;/u&gt;&lt;/font&gt;&lt;/b&gt;&lt;div&gt;&lt;font style=&quot;font-size: 10px;&quot;&gt;&amp;nbsp; SCORE&lt;/font&gt;&lt;/div&gt;" style="text;html=1;align=left;verticalAlign=middle;resizable=0;points=[];autosize=1;strokeColor=none;fillColor=none;fontFamily=Courier New;fontSize=11;fontColor=default;labelBackgroundColor=default;" vertex="1" parent="QptUwqCMD3HkQwkREWGF-25">
          <mxGeometry y="30" width="120" height="40" as="geometry" />
        </mxCell>
        <mxCell id="QptUwqCMD3HkQwkREWGF-55" style="edgeStyle=none;shape=connector;rounded=0;orthogonalLoop=1;jettySize=auto;html=1;exitX=0.5;exitY=0;exitDx=0;exitDy=0;entryX=0;entryY=0.5;entryDx=0;entryDy=0;strokeColor=default;align=center;verticalAlign=middle;fontFamily=Courier New;fontSize=11;fontColor=default;labelBackgroundColor=default;endArrow=none;" edge="1" parent="WIyWlLk6GJQsqaUBKTNV-1" source="QptUwqCMD3HkQwkREWGF-29" target="QptUwqCMD3HkQwkREWGF-17">
          <mxGeometry relative="1" as="geometry" />
        </mxCell>
        <mxCell id="QptUwqCMD3HkQwkREWGF-89" value="1:1" style="edgeLabel;html=1;align=center;verticalAlign=middle;resizable=0;points=[];fontFamily=Helvetica;fontSize=11;fontColor=default;labelBackgroundColor=default;rotation=-50;" vertex="1" connectable="0" parent="QptUwqCMD3HkQwkREWGF-55">
          <mxGeometry x="0.6619" y="1" relative="1" as="geometry">
            <mxPoint x="-11" as="offset" />
          </mxGeometry>
        </mxCell>
        <mxCell id="QptUwqCMD3HkQwkREWGF-59" style="edgeStyle=none;shape=connector;rounded=0;orthogonalLoop=1;jettySize=auto;html=1;exitX=0.5;exitY=1;exitDx=0;exitDy=0;strokeColor=default;align=center;verticalAlign=middle;fontFamily=Courier New;fontSize=11;fontColor=default;labelBackgroundColor=default;endArrow=none;entryX=0;entryY=0.5;entryDx=0;entryDy=0;" edge="1" parent="WIyWlLk6GJQsqaUBKTNV-1" source="QptUwqCMD3HkQwkREWGF-29" target="QptUwqCMD3HkQwkREWGF-60">
          <mxGeometry relative="1" as="geometry">
            <mxPoint x="620" y="960" as="targetPoint" />
            <Array as="points">
              <mxPoint x="220" y="960" />
            </Array>
          </mxGeometry>
        </mxCell>
        <mxCell id="QptUwqCMD3HkQwkREWGF-87" style="edgeStyle=none;shape=connector;rounded=0;orthogonalLoop=1;jettySize=auto;html=1;exitX=0.5;exitY=1;exitDx=0;exitDy=0;entryX=0;entryY=0;entryDx=0;entryDy=0;strokeColor=default;align=center;verticalAlign=middle;fontFamily=Courier New;fontSize=11;fontColor=default;labelBackgroundColor=default;endArrow=none;" edge="1" parent="WIyWlLk6GJQsqaUBKTNV-1" source="QptUwqCMD3HkQwkREWGF-29" target="QptUwqCMD3HkQwkREWGF-65">
          <mxGeometry relative="1" as="geometry" />
        </mxCell>
        <mxCell id="QptUwqCMD3HkQwkREWGF-29" value="AVATAR" style="swimlane;fontStyle=0;childLayout=stackLayout;horizontal=1;startSize=30;horizontalStack=0;resizeParent=1;resizeParentMax=0;resizeLast=0;collapsible=1;marginBottom=0;whiteSpace=wrap;html=1;fontFamily=Courier New;" vertex="1" parent="WIyWlLk6GJQsqaUBKTNV-1">
          <mxGeometry x="160" y="580" width="120" height="80" as="geometry" />
        </mxCell>
        <mxCell id="QptUwqCMD3HkQwkREWGF-80" value="&lt;div&gt;&lt;span style=&quot;font-size: 10px;&quot;&gt;&lt;b&gt;&amp;nbsp; &lt;u&gt;&lt;font&gt;NICK&lt;/font&gt;&lt;/u&gt;&lt;/b&gt;&lt;/span&gt;&lt;/div&gt;&lt;div&gt;&lt;span style=&quot;font-size: 10px;&quot;&gt;&amp;nbsp; SKIN&lt;/span&gt;&lt;/div&gt;&lt;div&gt;&lt;span style=&quot;font-size: 10px;&quot;&gt;&amp;nbsp; LVL&lt;/span&gt;&lt;/div&gt;" style="text;html=1;align=left;verticalAlign=middle;resizable=0;points=[];autosize=1;strokeColor=none;fillColor=none;fontFamily=Courier New;fontSize=11;fontColor=default;labelBackgroundColor=default;" vertex="1" parent="QptUwqCMD3HkQwkREWGF-29">
          <mxGeometry y="30" width="120" height="50" as="geometry" />
        </mxCell>
        <mxCell id="QptUwqCMD3HkQwkREWGF-85" style="edgeStyle=none;shape=connector;rounded=0;orthogonalLoop=1;jettySize=auto;html=1;exitX=0;exitY=0.5;exitDx=0;exitDy=0;entryX=1;entryY=1;entryDx=0;entryDy=0;strokeColor=default;align=center;verticalAlign=middle;fontFamily=Courier New;fontSize=11;fontColor=default;labelBackgroundColor=default;endArrow=none;" edge="1" parent="WIyWlLk6GJQsqaUBKTNV-1" source="QptUwqCMD3HkQwkREWGF-33" target="QptUwqCMD3HkQwkREWGF-65">
          <mxGeometry relative="1" as="geometry" />
        </mxCell>
        <mxCell id="QptUwqCMD3HkQwkREWGF-33" value="GAME" style="swimlane;fontStyle=0;childLayout=stackLayout;horizontal=1;startSize=30;horizontalStack=0;resizeParent=1;resizeParentMax=0;resizeLast=0;collapsible=1;marginBottom=0;whiteSpace=wrap;html=1;fontFamily=Courier New;" vertex="1" parent="WIyWlLk6GJQsqaUBKTNV-1">
          <mxGeometry x="360" y="760" width="120" height="100" as="geometry" />
        </mxCell>
        <mxCell id="QptUwqCMD3HkQwkREWGF-79" value="&lt;font style=&quot;font-size: 10px;&quot;&gt;&lt;b&gt;&amp;nbsp; &lt;u&gt;CODE&lt;/u&gt;&lt;/b&gt;&lt;/font&gt;&lt;div&gt;&lt;font style=&quot;font-size: 10px;&quot;&gt;&amp;nbsp; NAME&lt;/font&gt;&lt;/div&gt;&lt;div&gt;&lt;font style=&quot;font-size: 10px;&quot;&gt;&amp;nbsp; RULES&lt;/font&gt;&lt;/div&gt;&lt;div&gt;&lt;font style=&quot;font-size: 10px;&quot;&gt;&amp;nbsp; DESCRIPTION&lt;/font&gt;&lt;/div&gt;" style="text;html=1;align=left;verticalAlign=middle;resizable=0;points=[];autosize=1;strokeColor=none;fillColor=none;fontFamily=Courier New;fontSize=11;fontColor=default;labelBackgroundColor=default;" vertex="1" parent="QptUwqCMD3HkQwkREWGF-33">
          <mxGeometry y="30" width="120" height="70" as="geometry" />
        </mxCell>
        <mxCell id="QptUwqCMD3HkQwkREWGF-43" style="edgeStyle=none;shape=connector;rounded=0;orthogonalLoop=1;jettySize=auto;html=1;entryX=0.5;entryY=0;entryDx=0;entryDy=0;strokeColor=default;align=center;verticalAlign=middle;fontFamily=Courier New;fontSize=11;fontColor=default;labelBackgroundColor=default;endArrow=none;" edge="1" parent="WIyWlLk6GJQsqaUBKTNV-1" source="QptUwqCMD3HkQwkREWGF-73" target="QptUwqCMD3HkQwkREWGF-33">
          <mxGeometry relative="1" as="geometry" />
        </mxCell>
        <mxCell id="QptUwqCMD3HkQwkREWGF-60" value="&lt;font style=&quot;font-size: 8px;&quot;&gt;FIGHTS&lt;/font&gt;" style="rhombus;whiteSpace=wrap;html=1;fontFamily=Courier New;fontSize=11;fontColor=default;labelBackgroundColor=default;" vertex="1" parent="WIyWlLk6GJQsqaUBKTNV-1">
          <mxGeometry x="387" y="927" width="65" height="65" as="geometry" />
        </mxCell>
        <mxCell id="QptUwqCMD3HkQwkREWGF-65" value="&lt;font style=&quot;font-size: 8px;&quot;&gt;USES&lt;/font&gt;" style="rhombus;whiteSpace=wrap;html=1;fontFamily=Courier New;fontSize=11;fontColor=default;labelBackgroundColor=default;" vertex="1" parent="WIyWlLk6GJQsqaUBKTNV-1">
          <mxGeometry x="259" y="706" width="65" height="65" as="geometry" />
        </mxCell>
        <mxCell id="QptUwqCMD3HkQwkREWGF-66" value="&lt;font style=&quot;font-size: 8px;&quot;&gt;POSSESES&lt;/font&gt;" style="rhombus;whiteSpace=wrap;html=1;fontFamily=Courier New;fontSize=11;fontColor=default;labelBackgroundColor=default;" vertex="1" parent="WIyWlLk6GJQsqaUBKTNV-1">
          <mxGeometry x="256" y="472" width="65" height="65" as="geometry" />
        </mxCell>
        <mxCell id="QptUwqCMD3HkQwkREWGF-69" value="" style="edgeStyle=none;shape=connector;rounded=0;orthogonalLoop=1;jettySize=auto;html=1;entryX=1;entryY=0.5;entryDx=0;entryDy=0;strokeColor=default;align=center;verticalAlign=middle;fontFamily=Courier New;fontSize=11;fontColor=default;labelBackgroundColor=default;endArrow=none;" edge="1" parent="WIyWlLk6GJQsqaUBKTNV-1" source="QptUwqCMD3HkQwkREWGF-21" target="QptUwqCMD3HkQwkREWGF-68">
          <mxGeometry relative="1" as="geometry">
            <mxPoint x="360" y="620" as="sourcePoint" />
            <mxPoint x="280" y="620" as="targetPoint" />
          </mxGeometry>
        </mxCell>
        <mxCell id="QptUwqCMD3HkQwkREWGF-70" style="edgeStyle=none;shape=connector;rounded=0;orthogonalLoop=1;jettySize=auto;html=1;entryX=1;entryY=0.5;entryDx=0;entryDy=0;strokeColor=default;align=center;verticalAlign=middle;fontFamily=Courier New;fontSize=11;fontColor=default;labelBackgroundColor=default;endArrow=none;" edge="1" parent="WIyWlLk6GJQsqaUBKTNV-1" source="QptUwqCMD3HkQwkREWGF-68" target="QptUwqCMD3HkQwkREWGF-29">
          <mxGeometry relative="1" as="geometry" />
        </mxCell>
        <mxCell id="QptUwqCMD3HkQwkREWGF-68" value="&lt;font style=&quot;font-size: 8px;&quot;&gt;PLAYS&lt;/font&gt;" style="rhombus;whiteSpace=wrap;html=1;fontFamily=Courier New;fontSize=11;fontColor=default;labelBackgroundColor=default;" vertex="1" parent="WIyWlLk6GJQsqaUBKTNV-1">
          <mxGeometry x="302" y="602.5" width="35" height="35" as="geometry" />
        </mxCell>
        <mxCell id="QptUwqCMD3HkQwkREWGF-72" value="" style="edgeStyle=none;shape=connector;rounded=0;orthogonalLoop=1;jettySize=auto;html=1;exitX=0.5;exitY=0;exitDx=0;exitDy=0;entryX=0.5;entryY=1;entryDx=0;entryDy=0;strokeColor=default;align=center;verticalAlign=middle;fontFamily=Courier New;fontSize=11;fontColor=default;labelBackgroundColor=default;endArrow=none;" edge="1" parent="WIyWlLk6GJQsqaUBKTNV-1" source="QptUwqCMD3HkQwkREWGF-21" target="QptUwqCMD3HkQwkREWGF-71">
          <mxGeometry relative="1" as="geometry">
            <mxPoint x="420" y="560" as="sourcePoint" />
            <mxPoint x="420" y="480" as="targetPoint" />
          </mxGeometry>
        </mxCell>
        <mxCell id="QptUwqCMD3HkQwkREWGF-71" value="&lt;font style=&quot;font-size: 8px;&quot;&gt;CREATES&lt;/font&gt;" style="rhombus;whiteSpace=wrap;html=1;fontFamily=Courier New;fontSize=11;fontColor=default;labelBackgroundColor=default;" vertex="1" parent="WIyWlLk6GJQsqaUBKTNV-1">
          <mxGeometry x="402.5" y="502" width="35" height="35" as="geometry" />
        </mxCell>
        <mxCell id="QptUwqCMD3HkQwkREWGF-74" value="" style="edgeStyle=none;shape=connector;rounded=0;orthogonalLoop=1;jettySize=auto;html=1;entryX=0.5;entryY=0;entryDx=0;entryDy=0;strokeColor=default;align=center;verticalAlign=middle;fontFamily=Courier New;fontSize=11;fontColor=default;labelBackgroundColor=default;endArrow=none;" edge="1" parent="WIyWlLk6GJQsqaUBKTNV-1" source="QptUwqCMD3HkQwkREWGF-37" target="QptUwqCMD3HkQwkREWGF-73">
          <mxGeometry relative="1" as="geometry">
            <mxPoint x="420" y="680" as="sourcePoint" />
            <mxPoint x="420" y="760" as="targetPoint" />
          </mxGeometry>
        </mxCell>
        <mxCell id="QptUwqCMD3HkQwkREWGF-73" value="&lt;font style=&quot;font-size: 8px;&quot;&gt;HOUSES&lt;/font&gt;" style="rhombus;whiteSpace=wrap;html=1;fontFamily=Courier New;fontSize=11;fontColor=default;labelBackgroundColor=default;" vertex="1" parent="WIyWlLk6GJQsqaUBKTNV-1">
          <mxGeometry x="402" y="702" width="35" height="35" as="geometry" />
        </mxCell>
        <mxCell id="QptUwqCMD3HkQwkREWGF-76" value="" style="edgeStyle=none;shape=connector;rounded=0;orthogonalLoop=1;jettySize=auto;html=1;entryX=0;entryY=0.5;entryDx=0;entryDy=0;strokeColor=default;align=center;verticalAlign=middle;fontFamily=Courier New;fontSize=11;fontColor=default;labelBackgroundColor=default;endArrow=none;" edge="1" parent="WIyWlLk6GJQsqaUBKTNV-1" source="QptUwqCMD3HkQwkREWGF-21" target="QptUwqCMD3HkQwkREWGF-75">
          <mxGeometry relative="1" as="geometry">
            <mxPoint x="480" y="620" as="sourcePoint" />
            <mxPoint x="560" y="620" as="targetPoint" />
          </mxGeometry>
        </mxCell>
        <mxCell id="QptUwqCMD3HkQwkREWGF-75" value="&lt;font style=&quot;font-size: 8px;&quot;&gt;TAKE&lt;/font&gt;&lt;div&gt;&lt;font style=&quot;font-size: 8px;&quot;&gt;PLACE&lt;/font&gt;&lt;/div&gt;" style="rhombus;whiteSpace=wrap;html=1;fontFamily=Courier New;fontSize=11;fontColor=default;labelBackgroundColor=default;" vertex="1" parent="WIyWlLk6GJQsqaUBKTNV-1">
          <mxGeometry x="502" y="602.5" width="35" height="35" as="geometry" />
        </mxCell>
        <mxCell id="QptUwqCMD3HkQwkREWGF-90" value="1:N" style="edgeLabel;html=1;align=center;verticalAlign=middle;resizable=0;points=[];fontFamily=Helvetica;fontSize=11;fontColor=default;labelBackgroundColor=default;rotation=-45;" vertex="1" connectable="0" parent="WIyWlLk6GJQsqaUBKTNV-1">
          <mxGeometry x="291.50059266831096" y="540.0033832522022" as="geometry">
            <mxPoint x="19.11534725626081" y="-64.33975053784839" as="offset" />
          </mxGeometry>
        </mxCell>
        <mxCell id="QptUwqCMD3HkQwkREWGF-91" value="1:n" style="edgeLabel;html=1;align=center;verticalAlign=middle;resizable=0;points=[];fontFamily=Helvetica;fontSize=11;fontColor=default;labelBackgroundColor=default;rotation=-50;" vertex="1" connectable="0" parent="WIyWlLk6GJQsqaUBKTNV-1">
          <mxGeometry x="347.21059266831094" y="472.0033832522022" as="geometry">
            <mxPoint x="-125.9850938035182" y="-36.57534879285124" as="offset" />
          </mxGeometry>
        </mxCell>
      </root>
    </mxGraphModel>
  </diagram>
</mxfile>
